<?xml version="1.0" encoding="utf-8"?><svg viewBox="0 0 50 50" xmlns="http://www.w3.org/2000/svg" xmlns:xlink="http://www.w3.org/1999/xlink"><style>:root>svg{display:none}:root>svg:target{display:block}</style><svg viewBox="0 0 22 16" id="arrow-left" xmlns="http://www.w3.org/2000/svg"><path d="M21 9a1 1 0 100-2v2zM.293 7.293a1 1 0 000 1.414l6.364 6.364a1 1 0 001.414-1.414L2.414 8l5.657-5.657A1 1 0 006.657.93L.293 7.293zM21 7H1v2h20V7z"/></svg><svg viewBox="0 0 16 18" id="available-course--homework" xmlns="http://www.w3.org/2000/svg"><path d="M11.184 7.875a.625.625 0 00-.625-.625H4.122a.625.625 0 100 1.25h6.437c.345 0 .625-.28.625-.625zM4.122 9.75a.625.625 0 100 1.25h3.91a.625.625 0 100-1.25h-3.91z"/><path d="M5.59 15.75H3.5c-.69 0-1.25-.56-1.25-1.25v-11c0-.69.56-1.25 1.25-1.25h7.684c.69 0 1.25.56 1.25 1.25v3.844a.625.625 0 101.25 0V3.5c0-1.378-1.121-2.5-2.5-2.5H3.5A2.503 2.503 0 001 3.5v11C1 15.879 2.122 17 3.5 17h2.09a.625.625 0 100-1.25z"/><path d="M14.791 10.05a1.877 1.877 0 00-2.651-.001l-3.431 3.423a.625.625 0 00-.157.261l-.747 2.46a.625.625 0 00.765.784l2.522-.698a.624.624 0 00.275-.16L14.79 12.7a1.877 1.877 0 000-2.652zm-4.19 5.068l-1.27.351.371-1.223 2.316-2.31.884.884-2.302 2.298zm3.307-3.301l-.121.12-.884-.883.12-.12a.626.626 0 01.885.883zM10.559 4.75H4.122a.625.625 0 100 1.25h6.437a.625.625 0 100-1.25zM11.184 7.875a.625.625 0 00-.625-.625H4.122a.625.625 0 100 1.25h6.437c.345 0 .625-.28.625-.625zM4.122 9.75a.625.625 0 100 1.25h3.91a.625.625 0 100-1.25h-3.91z"/><path d="M5.59 15.75H3.5c-.69 0-1.25-.56-1.25-1.25v-11c0-.69.56-1.25 1.25-1.25h7.684c.69 0 1.25.56 1.25 1.25v3.844a.625.625 0 101.25 0V3.5c0-1.378-1.121-2.5-2.5-2.5H3.5A2.503 2.503 0 001 3.5v11C1 15.879 2.122 17 3.5 17h2.09a.625.625 0 100-1.25z"/><path d="M14.791 10.05a1.877 1.877 0 00-2.651-.001l-3.431 3.423a.625.625 0 00-.157.261l-.747 2.46a.625.625 0 00.765.784l2.522-.698a.624.624 0 00.275-.16L14.79 12.7a1.877 1.877 0 000-2.652zm-4.19 5.068l-1.27.351.371-1.223 2.316-2.31.884.884-2.302 2.298zm3.307-3.301l-.121.12-.884-.883.12-.12a.626.626 0 01.885.883zM10.559 4.75H4.122a.625.625 0 100 1.25h6.437a.625.625 0 100-1.25z"/></svg><svg viewBox="0 0 20 20" id="available-course--lessons" xmlns="http://www.w3.org/2000/svg"><path d="M8.695.871h1.739v18.261H8.695z"/><path d="M9.567 11.305V9.566h8.696v1.74z"/></svg><svg viewBox="0 0 13 16" id="available-course--start" xmlns="http://www.w3.org/2000/svg"><path d="M12.5 7.134a1 1 0 010 1.732L2 14.928a1 1 0 01-1.5-.866V1.938A1 1 0 012 1.072l10.5 6.062z"/></svg><svg viewBox="0 0 24 18" id="available-course--video-lesson" xmlns="http://www.w3.org/2000/svg"><path d="M21.29 1.2l-4.94 3.337V1.975c0-.538-.491-.974-1.097-.974H2.097C1.49 1.001 1 1.437 1 1.975v14.05c0 .539.49.975 1.096.975h13.158c.605 0 1.095-.436 1.095-.974v-2.562l4.94 3.337c.715.483 1.759.033 1.759-.775V1.976c0-.804-1.038-1.263-1.759-.776zm-7.132 13.852H3.19V2.949h10.967v12.103zm6.699-.99l-4.508-3.044V6.983l4.508-3.045v10.124z"/></svg><svg viewBox="0 0 30 30" id="lessons--del-attach" xmlns="http://www.w3.org/2000/svg"><circle cx="15" cy="15" r="15" fill-opacity=".7"/><path fill-rule="evenodd" clip-rule="evenodd" d="M21.116 8.893a1.08 1.08 0 00-1.528 0l-4.584 4.584-4.583-4.583a1.08 1.08 0 00-1.528 1.528l4.583 4.583-4.584 4.584a1.08 1.08 0 101.528 1.528l4.584-4.584 4.585 4.585a1.08 1.08 0 001.528-1.528l-4.585-4.585 4.584-4.584a1.08 1.08 0 000-1.528z"/></svg><svg viewBox="0 0 23 20" id="lessons--dislike" xmlns="http://www.w3.org/2000/svg"><path d="M0 12.857V1.429C0 .639.64 0 1.429 0h4.285v14.286H1.43c-.79 0-1.429-.64-1.429-1.429zm20.219 0h-4.22a.702.702 0 00-.616.353.703.703 0 00-.01.708l1.489 2.68c.326.586.36 1.276.092 1.892a2.125 2.125 0 01-1.446 1.226l-1.05.262a.713.713 0 01-.703-.214l-5.696-6.328a3.57 3.57 0 01-.916-2.39V3.572A3.576 3.576 0 0110.714 0l7.106.001a3.58 3.58 0 013.444 2.627l1.525 6.998a2.641 2.641 0 01-2.57 3.232z"/></svg><svg viewBox="0 0 16 18" id="lessons--download" xmlns="http://www.w3.org/2000/svg"><path d="M15.286 11.286a.571.571 0 00-.572.571v3.429a.572.572 0 01-.571.571H2.714a.571.571 0 01-.571-.571v-3.429a.571.571 0 00-1.143 0v3.429C1 16.233 1.768 17 2.714 17h11.429c.947 0 1.714-.767 1.714-1.714v-3.429a.571.571 0 00-.571-.571z"/><path d="M11.677 10.882a.572.572 0 00-.794 0L9 12.763V1.571a.571.571 0 10-1.143 0v11.192l-1.882-1.881a.572.572 0 00-.808.808l2.858 2.857a.571.571 0 00.808 0l2.858-2.857a.571.571 0 00-.014-.808z"/><path d="M15.286 11.286a.571.571 0 00-.572.571v3.429a.572.572 0 01-.571.571H2.714a.571.571 0 01-.571-.571v-3.429a.571.571 0 00-1.143 0v3.429C1 16.233 1.768 17 2.714 17h11.429c.947 0 1.714-.767 1.714-1.714v-3.429a.571.571 0 00-.571-.571z"/><path d="M11.677 10.882a.572.572 0 00-.794 0L9 12.763V1.571a.571.571 0 10-1.143 0v11.192l-1.882-1.881a.572.572 0 00-.808.808l2.858 2.857a.571.571 0 00.808 0l2.858-2.857a.571.571 0 00-.014-.808z"/></svg><svg viewBox="0 0 23 20" id="lessons--like" xmlns="http://www.w3.org/2000/svg"><path d="M0 7.143v11.428C0 19.361.64 20 1.429 20h4.285V5.714H1.43c-.791 0-1.43.64-1.43 1.429zm20.219 0h-4.22a.702.702 0 01-.616-.353.703.703 0 01-.01-.708l1.489-2.68c.326-.586.36-1.276.092-1.892A2.125 2.125 0 0015.508.284l-1.05-.262a.713.713 0 00-.703.214L8.059 6.564a3.57 3.57 0 00-.916 2.39v7.474A3.576 3.576 0 0010.714 20l7.106-.001a3.58 3.58 0 003.444-2.627l1.525-6.998a2.641 2.641 0 00-2.57-3.232z"/></svg><svg viewBox="0 0 26 15" id="lessons--read" xmlns="http://www.w3.org/2000/svg"><path fill-rule="evenodd" clip-rule="evenodd" d="M17.662 1.099C13.616-.72 9.3-.275 5.182 2.387 2.116 4.367.253 6.857.177 6.963a.91.91 0 00.025 1.112c1.745 2.121 3.572 3.773 5.44 4.925.75.362 2.664 1.22 4.306 1.752.79.167 1.586.248 2.387.248a12.25 12.25 0 003.628-.56c1.587-.49 3.164-1.299 4.689-2.4 2.572-1.864 4.107-3.92 4.174-4.006a.91.91 0 00-.026-1.111c-1.26-1.536-2.566-2.829-3.893-3.854-1-.841-2.58-1.664-3.245-1.97zM2.111 7.484c1.586 1.833 3.22 3.238 4.877 4.187.554.28 1.997.932 3.337 1.303 3.036.637 6.133-.161 9.2-2.369a20.056 20.056 0 003.367-3.096c-1.02-1.182-2.072-2.192-3.123-3.006-.777-.646-2.66-1.612-3.505-2.015-3.296-1.248-6.679-.773-10.077 1.42C4.223 5.174 2.79 6.695 2.111 7.483z"/><path fill-rule="evenodd" clip-rule="evenodd" d="M12.6 9.7a2.1 2.1 0 100-4.2 2.1 2.1 0 000 4.2zm0 1.5a3.6 3.6 0 100-7.2 3.6 3.6 0 000 7.2z"/></svg><svg viewBox="0 0 25 22" id="menu--cart" xmlns="http://www.w3.org/2000/svg"><path d="M23.017 4.006H4.25L3.97.898A.986.986 0 002.99 0H.986a.986.986 0 100 1.972h1.101l1.134 12.631c.08.91.573 1.898 1.42 2.57C3.113 19.123 4.509 22 6.994 22c2.063 0 3.518-2.057 2.81-4.006H15.2C14.493 19.94 15.945 22 18.01 22a2.992 2.992 0 002.989-2.989 2.992 2.992 0 00-2.989-2.988H7.001a1.83 1.83 0 01-1.683-1.11l15.754-.926a.986.986 0 00.899-.745l2.003-8.012a.986.986 0 00-.957-1.224zM6.994 20.029a1.018 1.018 0 010-2.035 1.018 1.018 0 010 2.035zm11.016 0a1.018 1.018 0 010-2.035 1.018 1.018 0 010 2.035zm2.223-7.968l-15.18.892-.627-6.976h17.328l-1.52 6.084z"/></svg><svg viewBox="0 0 22 22" id="menu--courses" xmlns="http://www.w3.org/2000/svg"><path fill-rule="evenodd" clip-rule="evenodd" d="M0 1a1 1 0 011-1h8a1 1 0 011 1v8a1 1 0 01-1 1H1a1 1 0 01-1-1V1zm1.5 7.5v-7h7v7h-7zM12 1a1 1 0 011-1h8a1 1 0 011 1v8a1 1 0 01-1 1h-8a1 1 0 01-1-1V1zm1.5 7.5v-7h7v7h-7zM1 12a1 1 0 00-1 1v8a1 1 0 001 1h8a1 1 0 001-1v-8a1 1 0 00-1-1H1zm.5 1.5v7h7v-7h-7zM12 13a1 1 0 011-1h8a1 1 0 011 1v8a1 1 0 01-1 1h-8a1 1 0 01-1-1v-8zm1.5 7.5v-7h7v7h-7z"/></svg><svg viewBox="0 0 22 22" id="menu--logout" xmlns="http://www.w3.org/2000/svg"><path d="M11.037 20.1h8.222c.505 0 .914-.41.914-.914V2.741a.914.914 0 00-.914-.914h-8.223a.913.913 0 110-1.827h8.223A2.744 2.744 0 0122 2.74v16.446c0 1.511-1.23 2.74-2.74 2.74h-8.224a.913.913 0 110-1.826z"/><path d="M.272 10.313l5.555-5.482A.913.913 0 117.11 6.132L3.14 10.05h10.637a.913.913 0 110 1.827H3.14l3.97 3.918a.913.913 0 11-1.283 1.3l-5.555-5.48a.915.915 0 010-1.301z"/></svg><svg viewBox="0 0 42 20" id="next-arrow" xmlns="http://www.w3.org/2000/svg"><path d="M2 8.75a1.25 1.25 0 100 2.5v-2.5zm38.884 2.134a1.25 1.25 0 000-1.768l-7.955-7.955A1.25 1.25 0 1031.16 2.93L38.232 10l-7.07 7.071a1.25 1.25 0 101.767 1.768l7.955-7.955zM2 11.25h38v-2.5H2v2.5z"/></svg><svg viewBox="0 0 42 20" id="prev-arrow" xmlns="http://www.w3.org/2000/svg"><path d="M40 8.75a1.25 1.25 0 110 2.5v-2.5zM1.116 10.884a1.25 1.25 0 010-1.768l7.955-7.955A1.25 1.25 0 1110.84 2.93L3.768 10l7.07 7.071a1.25 1.25 0 11-1.767 1.768l-7.955-7.955zM40 11.25H2v-2.5h38v2.5z"/></svg><svg viewBox="0 0 50 50" id="upload-file" xmlns="http://www.w3.org/2000/svg"><circle cx="25" cy="25" r="24.5"/><path d="M35.298 22.28H14.702c-.413 0-.738.425-.699.915l.806 10.05c.035.428.337.755.699.755h18.984c.362 0 .665-.327.699-.756l.806-10.049c.039-.49-.285-.914-.7-.914zm-1.32-4.396H24.03v-1.049c0-.461-.314-.835-.702-.835h-7.302c-.388 0-.703.374-.703.835v3.776H34.68v-1.892c0-.46-.315-.835-.702-.835z"/></svg><svg viewBox="0 0 50 50" id="upload-img" xmlns="http://www.w3.org/2000/svg"><circle cx="25" cy="25" r="24.5"/><path d="M35.95 16.55a1.805 1.805 0 00-1.325-.55h-18.75c-.516 0-.957.183-1.324.55A1.81 1.81 0 0014 17.875v14.25c0 .516.184.957.55 1.324.368.367.81.551 1.325.551h18.75c.516 0 .957-.184 1.324-.55.368-.368.551-.81.551-1.325v-14.25c0-.516-.183-.957-.55-1.324zM35 32.126a.36.36 0 01-.111.264.362.362 0 01-.264.11h-18.75a.361.361 0 01-.264-.11.36.36 0 01-.11-.264v-14.25a.36.36 0 01.11-.264.361.361 0 01.264-.111h18.75a.36.36 0 01.264.111.362.362 0 01.111.264v14.25z"/><path d="M19.25 23.5a2.17 2.17 0 001.594-.656 2.17 2.17 0 00.656-1.594 2.17 2.17 0 00-.656-1.594A2.17 2.17 0 0019.25 19a2.17 2.17 0 00-1.593.656A2.17 2.17 0 0017 21.25c0 .625.218 1.156.656 1.594a2.17 2.17 0 001.593.656zm3.375 3.375L20.75 25 17 28.75V31h16.5v-5.25l-4.875-4.875-6 6z"/></svg></svg>