<svg width="16" height="18" fill="none" xmlns="http://www.w3.org/2000/svg"><path d="M15.286 11.286a.571.571 0 00-.572.571v3.429a.572.572 0 01-.571.571H2.714a.571.571 0 01-.571-.571v-3.429a.571.571 0 00-1.143 0v3.429C1 16.233 1.768 17 2.714 17h11.429c.947 0 1.714-.767 1.714-1.714v-3.429a.571.571 0 00-.571-.571z" fill="#481E8C"/><path d="M11.677 10.882a.572.572 0 00-.794 0L9 12.763V1.571a.571.571 0 10-1.143 0v11.192l-1.882-1.881a.572.572 0 00-.808.808l2.858 2.857a.571.571 0 00.808 0l2.858-2.857a.571.571 0 00-.014-.808z" fill="#481E8C"/><path d="M15.286 11.286a.571.571 0 00-.572.571v3.429a.572.572 0 01-.571.571H2.714a.571.571 0 01-.571-.571v-3.429a.571.571 0 00-1.143 0v3.429C1 16.233 1.768 17 2.714 17h11.429c.947 0 1.714-.767 1.714-1.714v-3.429a.571.571 0 00-.571-.571z" stroke="#481E8C" stroke-width=".2"/><path d="M11.677 10.882a.572.572 0 00-.794 0L9 12.763V1.571a.571.571 0 10-1.143 0v11.192l-1.882-1.881a.572.572 0 00-.808.808l2.858 2.857a.571.571 0 00.808 0s0 0 0 0l2.858-2.857a.571.571 0 00-.014-.808z" stroke="#481E8C" stroke-width=".2"/></svg>