<svg width="23" height="20" fill="none" xmlns="http://www.w3.org/2000/svg"><path d="M0 7.143v11.428C0 19.361.64 20 1.429 20h4.285V5.714H1.43c-.791 0-1.43.64-1.43 1.429zm20.219 0h-4.22a.702.702 0 01-.616-.353.703.703 0 01-.01-.708l1.489-2.68c.326-.586.36-1.276.092-1.892A2.125 2.125 0 0015.508.284l-1.05-.262a.713.713 0 00-.703.214L8.059 6.564a3.57 3.57 0 00-.916 2.39v7.474A3.576 3.576 0 0010.714 20l7.106-.001a3.58 3.58 0 003.444-2.627l1.525-6.998a2.641 2.641 0 00-2.57-3.232z" fill="#27AE60"/></svg>