<svg width="26" height="15" fill="none" xmlns="http://www.w3.org/2000/svg"><path fill-rule="evenodd" clip-rule="evenodd" d="M17.662 1.099C13.616-.72 9.3-.275 5.182 2.387 2.116 4.367.253 6.857.177 6.963a.91.91 0 00.025 1.112c1.745 2.121 3.572 3.773 5.44 4.925.75.362 2.664 1.22 4.306 1.752.79.167 1.586.248 2.387.248a12.25 12.25 0 003.628-.56c1.587-.49 3.164-1.299 4.689-2.4 2.572-1.864 4.107-3.92 4.174-4.006a.91.91 0 00-.026-1.111c-1.26-1.536-2.566-2.829-3.893-3.854-1-.841-2.58-1.664-3.245-1.97zM2.111 7.484c1.586 1.833 3.22 3.238 4.877 4.187.554.28 1.997.932 3.337 1.303 3.036.637 6.133-.161 9.2-2.369a20.056 20.056 0 003.367-3.096c-1.02-1.182-2.072-2.192-3.123-3.006-.777-.646-2.66-1.612-3.505-2.015-3.296-1.248-6.679-.773-10.077 1.42C4.223 5.174 2.79 6.695 2.111 7.483z" fill="#fff"/><path fill-rule="evenodd" clip-rule="evenodd" d="M12.6 9.7a2.1 2.1 0 100-4.2 2.1 2.1 0 000 4.2zm0 1.5a3.6 3.6 0 100-7.2 3.6 3.6 0 000 7.2z" fill="#fff"/></svg>