<svg width="25" height="22" fill="none" xmlns="http://www.w3.org/2000/svg"><path d="M23.017 4.006H4.25L3.97.898A.986.986 0 002.99 0H.986a.986.986 0 100 1.972h1.101l1.134 12.631c.08.91.573 1.898 1.42 2.57C3.113 19.123 4.509 22 6.994 22c2.063 0 3.518-2.057 2.81-4.006H15.2C14.493 19.94 15.945 22 18.01 22a2.992 2.992 0 002.989-2.989 2.992 2.992 0 00-2.989-2.988H7.001a1.83 1.83 0 01-1.683-1.11l15.754-.926a.986.986 0 00.899-.745l2.003-8.012a.986.986 0 00-.957-1.224zM6.994 20.029a1.018 1.018 0 010-2.035 1.018 1.018 0 010 2.035zm11.016 0a1.018 1.018 0 010-2.035 1.018 1.018 0 010 2.035zm2.223-7.968l-15.18.892-.627-6.976h17.328l-1.52 6.084z" fill="#BFC0C4"/></svg>