<svg width="50" height="50" fill="none" xmlns="http://www.w3.org/2000/svg"><circle cx="25" cy="25" r="24.5" stroke="#B4B3BB" stroke-linejoin="round" stroke-dasharray="3 3"/><path d="M35.95 16.55a1.805 1.805 0 00-1.325-.55h-18.75c-.516 0-.957.183-1.324.55A1.81 1.81 0 0014 17.875v14.25c0 .516.184.957.55 1.324.368.367.81.551 1.325.551h18.75c.516 0 .957-.184 1.324-.55.368-.368.551-.81.551-1.325v-14.25c0-.516-.183-.957-.55-1.324zM35 32.126a.36.36 0 01-.111.264.362.362 0 01-.264.11h-18.75a.361.361 0 01-.264-.11.36.36 0 01-.11-.264v-14.25a.36.36 0 01.11-.264.361.361 0 01.264-.111h18.75a.36.36 0 01.264.111.362.362 0 01.111.264v14.25z" fill="#7C7B85"/><path d="M19.25 23.5a2.17 2.17 0 001.594-.656 2.17 2.17 0 00.656-1.594 2.17 2.17 0 00-.656-1.594A2.17 2.17 0 0019.25 19a2.17 2.17 0 00-1.593.656A2.17 2.17 0 0017 21.25c0 .625.218 1.156.656 1.594a2.17 2.17 0 001.593.656zm3.375 3.375L20.75 25 17 28.75V31h16.5v-5.25l-4.875-4.875-6 6z" fill="#7C7B85"/></svg>